<?xml version="1.0" encoding="utf-8"?>
<!-- Generator: Adobe Illustrator 22.0.0, SVG Export Plug-In . SVG Version: 6.00 Build 0)  -->
<svg version="1.1" id="Layer_1" xmlns="http://www.w3.org/2000/svg" xmlns:xlink="http://www.w3.org/1999/xlink" x="0px" y="0px"
	 viewBox="0 0 113.5 80" style="enable-background:new 0 0 113.5 80;" xml:space="preserve">
<style type="text/css">
	.st0{fill:#FFFFFF;}
	.st1{font-family:'STXingkai';}
	.st2{font-size:30.6277px;}
</style>
<path class="st0" d="M49.8,46.8c0-3.9-1.3-7.8-3.9-11.8c-1.9-3-3.8-5.7-5.8-8.2c-1.8-2.3-3.6-4.2-5.2-5.7c-2.1-1.8-3.9-2.8-5.4-2.9
	c0.1,0.8,0.2,1.6,0.4,2.4c0.2,0.8,0.5,1.6,0.9,2.4c0.9,2,2.5,4.2,4.9,6.7c2.2,2.2,4.4,4.5,6.5,6.7c1.9,2.2,3.5,4.2,4.7,5.9
	C48.2,43.9,49.2,45.4,49.8,46.8L49.8,46.8z M29.6,0.3L29.6,0.3c0,1.2,0.8,3.3,2.4,6.2c1.8,3.3,4.4,7,7.6,10.9c1.2,1.5,2.4,3,3.7,4.5
	c1.8,2.2,3.2,4.2,4.2,5.9c1.4,2.5,2.5,5.2,3.1,7.9c0.3,1.3,0.6,2.6,0.8,3.8s0.3,2.5,0.3,3.8c0,1-0.1,2-0.2,3c-0.1,1-0.3,2-0.6,2.9
	c0.4,1.2,0.7,2.6,1,3.9c0.2,1.4,0.3,2.7,0.3,4.1c0,1.7-0.2,3.5-0.5,5.3c-0.7,3.6-1.6,6.8-2.9,9.7c-1.3,3.1-2.9,5.7-4.8,7.9l-0.4-0.5
	c1.4-1.8,2.8-4.4,4.1-7.8c1.5-4,2.3-7.4,2.3-10.4c0-2.7-0.2-4.6-0.5-5.7c-0.6-1.5-1.1-3-1.5-4.4c-0.6-1.9-1.6-3.7-3-5.4
	c-1.2-1.5-2.8-3.1-4.7-4.7c-3.6-3-7.1-4.7-10.7-5.2v30.3c0,3-1.5,5.9-4.4,8.7c-3.2,3-6.4,4.3-9.9,4.3c-2.1,0-3.9-0.6-5.3-1.7
	c-1.6-1.3-2.5-3.1-2.5-5.5c0-3.1,1.5-6,4.5-8.7c3-2.7,6.2-4,9.6-4c1.3,0,2.5,0.2,3.5,0.7c1,0.4,1.9,1.2,2.8,2.3V0.3H29.6L29.6,0.3z"
	/>
<text transform="matrix(1 0 0 1 67.0426 46.8124)" class="st0 st1 st2">ymz</text>
</svg>
